<svg viewBox="0 0 512 512" xmlns="http://www.w3.org/2000/svg">
  <path d="M101 246 256 113l155 133-22 26-19-17v101c0 25-20 45-45 45H187c-25 0-45-20-45-45V255l-19 17-22 17-22-26Zm75-21v131c0 6 5 11 11 11h138c6 0 11-5 11-11V225l-80-69-80 69Z"/>
  <path d="M172 265c0-29 23-52 52-52h35c29 0 52 23 52 52v16c0 29-23 52-52 52h-19l-47 40v-40c-13-3-21-10-21-10v-58Zm104 0c0-10-8-18-18-18h-34c-10 0-18 8-18 18v16c0 10 8 18 18 18h55c-2-5-3-11-3-18v-16Z"/>
  <path d="M242 293c0-29 23-52 52-52h30c29 0 52 23 52 52v16c0 29-23 52-52 52h-8l-50 42v-44c-15-5-24-18-24-18v-48Zm100 0c0-10-8-18-18-18h-30c-10 0-18 8-18 18v16c0 10 8 18 18 18h42c4-3 6-9 6-18v-16Z"/>
</svg>
