<svg width="512" height="512" viewBox="0 0 512 512" fill="none" xmlns="http://www.w3.org/2000/svg">
  <!-- Background -->
  <rect width="512" height="512" rx="96" fill="#142550"/>
  <!-- Red accent bar at bottom -->
  <rect x="0" y="416" width="512" height="96" rx="0" fill="#C82C39"/>
  <rect x="0" y="380" width="512" height="96" rx="96" fill="#C82C39"/>
  <!-- Open book icon (white) -->
  <!-- Left page -->
  <path d="M256 152 C256 152 180 160 148 188 C140 194 136 202 136 212 L136 340 C136 340 176 320 256 324 L256 152Z" fill="white" opacity="0.95"/>
  <!-- Right page -->
  <path d="M256 152 C256 152 332 160 364 188 C372 194 376 202 376 212 L376 340 C376 340 336 320 256 324 L256 152Z" fill="white" opacity="0.75"/>
  <!-- Spine -->
  <rect x="251" y="148" width="10" height="180" rx="4" fill="white" opacity="0.5"/>
  <!-- Page lines left -->
  <line x1="168" y1="228" x2="242" y2="222" stroke="#142550" stroke-width="8" stroke-linecap="round" opacity="0.25"/>
  <line x1="168" y1="252" x2="242" y2="246" stroke="#142550" stroke-width="8" stroke-linecap="round" opacity="0.25"/>
  <line x1="168" y1="276" x2="242" y2="271" stroke="#142550" stroke-width="8" stroke-linecap="round" opacity="0.25"/>
  <!-- Page lines right -->
  <line x1="270" y1="222" x2="344" y2="228" stroke="#142550" stroke-width="8" stroke-linecap="round" opacity="0.25"/>
  <line x1="270" y1="246" x2="344" y2="252" stroke="#142550" stroke-width="8" stroke-linecap="round" opacity="0.25"/>
  <line x1="270" y1="271" x2="344" y2="276" stroke="#142550" stroke-width="8" stroke-linecap="round" opacity="0.25"/>
  <!-- "WFG" initials on red bar -->
  <text x="256" y="448" text-anchor="middle" dominant-baseline="middle" font-family="Georgia, serif" font-size="52" font-weight="bold" fill="white" letter-spacing="6">WFG</text>
</svg>
